<?xml version="1.0" standalone="no"?>
<!DOCTYPE svg PUBLIC "-//W3C//DTD SVG 20010904//EN"
 "http://www.w3.org/TR/2001/REC-SVG-20010904/DTD/svg10.dtd">
<svg version="1.0" xmlns="http://www.w3.org/2000/svg"
 width="225.000000pt" height="225.000000pt" viewBox="0 0 225.000000 225.000000"
 preserveAspectRatio="xMidYMid meet">

<g transform="translate(0.000000,225.000000) scale(0.100000,-0.100000)"
fill="#000000" stroke="none">
<path d="M490 2085 c-186 -37 -342 -155 -418 -317 -91 -193 -80 -444 29 -648
81 -151 199 -276 524 -550 127 -107 282 -245 347 -307 156 -152 149 -152 306
0 65 61 218 198 342 302 336 284 450 405 534 565 54 103 77 191 83 315 11 242
-77 431 -255 548 -88 58 -162 84 -277 98 -189 22 -351 -39 -527 -200 l-55 -50
-29 31 c-52 54 -157 129 -239 168 -123 59 -229 72 -365 45z"/>
</g>
</svg>
